<?xml version="1.0" standalone="no"?>
<!DOCTYPE svg PUBLIC "-//W3C//DTD SVG 20010904//EN"
 "http://www.w3.org/TR/2001/REC-SVG-20010904/DTD/svg10.dtd">
<svg version="1.0" xmlns="http://www.w3.org/2000/svg"
 width="612.000000pt" height="589.000000pt" viewBox="0 0 612.000000 589.000000"
 preserveAspectRatio="xMidYMid meet">

<g transform="translate(0.000000,589.000000) scale(0.100000,-0.100000)"
fill="#000000" stroke="none">
<path d="M2462 5650 c-18 -4 -42 -16 -54 -26 -44 -40 -56 -117 -22 -145 27
-22 15 -37 -38 -48 -98 -21 -148 -71 -148 -146 0 -47 31 -105 69 -130 33 -21
41 -45 16 -45 -40 0 -132 -46 -172 -86 -38 -39 -43 -48 -43 -90 0 -41 5 -51
38 -83 20 -20 46 -41 56 -47 17 -9 14 -13 -30 -35 -67 -33 -81 -64 -58 -128
l17 -47 -49 -63 c-27 -34 -62 -81 -79 -104 -16 -23 -44 -58 -62 -77 -18 -19
-66 -80 -106 -135 -112 -155 -320 -349 -414 -386 -15 -6 -65 -15 -111 -20
-208 -22 -412 -123 -552 -272 -111 -119 -143 -162 -230 -313 -114 -195 -216
-409 -266 -558 -75 -221 -80 -287 -26 -341 25 -26 31 -27 88 -22 l62 6 7 -65
c8 -75 35 -116 90 -134 45 -15 98 1 142 42 17 17 36 27 42 24 6 -4 11 -26 11
-50 0 -59 52 -161 93 -182 39 -21 91 -7 132 36 16 16 32 30 36 30 3 0 14 -20
24 -45 23 -62 52 -79 114 -71 47 6 51 5 104 -39 31 -25 58 -45 61 -45 3 0 15
-8 26 -17 11 -10 44 -31 74 -48 29 -16 86 -52 127 -79 41 -27 112 -70 159 -95
47 -25 104 -59 127 -76 23 -16 70 -50 104 -75 208 -148 374 -299 415 -377 17
-32 42 -81 57 -108 14 -28 53 -106 86 -175 54 -111 70 -134 138 -202 83 -82
182 -147 342 -224 260 -126 224 -112 421 -158 367 -87 494 -110 613 -110 l118
-1 35 37 c28 31 34 46 34 82 0 26 -6 48 -15 56 -27 22 -16 35 45 53 33 9 74
30 91 45 64 57 44 169 -40 225 -22 15 -45 27 -51 27 -5 0 -10 3 -10 8 0 4 26
13 57 21 72 16 140 50 173 86 52 56 25 142 -60 195 -22 14 -40 28 -40 32 0 3
16 12 35 18 74 24 94 83 56 159 l-20 38 26 49 c21 42 103 184 134 234 5 8 17
28 27 44 21 34 143 188 186 234 101 109 273 208 481 277 125 42 229 85 234 97
2 5 31 29 65 54 117 85 273 335 379 609 52 134 153 439 182 550 39 151 33 204
-30 257 -25 21 -83 23 -109 3 -34 -26 -43 -18 -50 43 -11 99 -52 143 -137 144
-61 1 -105 -33 -135 -104 -9 -21 -20 -38 -25 -38 -5 0 -8 27 -8 60 3 104 -78
230 -147 230 -32 0 -93 -48 -114 -91 -22 -42 -40 -44 -40 -3 0 25 -14 55 -39
87 -20 24 -69 21 -116 -8 -22 -13 -44 -25 -48 -25 -5 0 -59 49 -120 108 -62
59 -148 134 -192 167 -44 32 -96 73 -115 91 -19 17 -84 68 -145 113 -60 46
-142 113 -181 151 -59 57 -76 82 -106 152 -20 45 -41 101 -48 123 -6 22 -39
96 -73 165 -47 97 -74 139 -121 189 -76 79 -268 209 -384 260 -217 96 -678
235 -911 276 -94 16 -110 17 -159 5z m-244 -1146 c29 -19 83 -51 120 -70 37
-20 106 -61 153 -90 47 -30 89 -54 92 -54 7 0 158 -98 207 -135 67 -50 133
-120 151 -159 15 -35 16 -43 3 -67 -20 -39 -169 -194 -245 -254 -34 -27 -74
-61 -89 -75 -15 -14 -42 -37 -61 -51 -49 -38 -194 -188 -221 -229 -43 -64 -46
-88 -52 -360 -6 -282 -18 -416 -41 -460 -19 -38 -68 -77 -105 -85 -45 -10 -83
17 -169 119 -110 131 -181 154 -270 91 -51 -36 -170 -151 -292 -281 -173 -186
-219 -238 -265 -309 -49 -74 -66 -90 -103 -100 -33 -8 -61 21 -68 73 -5 34 0
49 27 94 19 29 51 87 73 128 22 41 47 86 57 100 9 14 43 75 75 135 32 61 80
150 107 198 28 48 47 94 44 102 -12 31 -36 12 -71 -57 -21 -40 -41 -77 -45
-83 -10 -12 -43 -74 -99 -179 -49 -92 -95 -159 -164 -235 -26 -30 -51 -66 -54
-82 -3 -16 -29 -53 -57 -84 -63 -67 -92 -72 -129 -23 -77 103 -60 202 72 418
92 150 221 390 221 411 0 10 -6 19 -12 19 -13 0 -95 -131 -174 -275 -61 -111
-114 -193 -194 -303 -57 -78 -85 -107 -118 -123 -34 -17 -48 -19 -66 -11 -32
14 -50 85 -44 167 7 80 42 156 166 361 115 191 159 281 143 297 -16 16 -32 -3
-82 -98 -23 -44 -50 -92 -60 -107 -11 -14 -19 -29 -19 -33 0 -3 -28 -47 -63
-98 -34 -51 -73 -120 -86 -153 -22 -59 -61 -110 -108 -141 -30 -20 -71 -9 -83
21 -20 55 29 260 98 401 11 22 27 58 37 80 135 305 295 560 429 683 63 57 218
153 286 177 25 9 105 27 179 40 169 32 223 59 356 183 108 102 130 123 160
166 74 103 123 167 160 206 23 25 75 89 114 143 83 113 84 114 179 51z m2947
-654 c13 -14 19 -42 23 -95 l5 -75 -83 -161 c-45 -90 -90 -185 -101 -213 -11
-28 -28 -69 -38 -91 -10 -22 -24 -58 -30 -80 -7 -22 -16 -49 -21 -60 -18 -42
-32 -97 -26 -103 10 -9 20 8 55 98 99 253 156 376 226 485 17 28 37 66 45 85
27 73 92 180 121 201 31 22 31 22 57 2 116 -86 124 -253 21 -437 -80 -144
-178 -388 -179 -443 0 -22 18 -14 25 10 16 52 108 274 123 297 31 47 146 255
184 332 41 83 71 108 127 108 62 0 100 -64 101 -168 0 -39 -80 -242 -179 -457
-16 -33 -34 -78 -41 -100 -7 -22 -23 -61 -36 -87 -27 -54 -29 -68 -11 -68 15
0 23 17 133 275 107 253 166 366 209 403 43 38 64 40 98 8 52 -48 45 -115 -42
-388 -159 -495 -286 -758 -433 -893 -172 -158 -180 -163 -443 -250 -142 -47
-235 -99 -363 -203 -71 -57 -188 -213 -304 -406 -60 -99 -114 -186 -119 -192
-12 -15 -45 -5 -90 26 -15 11 -74 43 -131 71 -57 28 -135 71 -174 95 -39 24
-74 44 -78 44 -5 0 -30 16 -55 35 -26 19 -58 39 -72 45 -63 28 -176 108 -199
140 -45 63 -18 131 117 303 159 202 303 410 350 505 24 50 27 66 26 151 -1 51
-7 156 -13 231 -16 181 -11 305 16 351 26 44 78 79 118 79 36 0 46 -6 69 -40
36 -53 122 -131 170 -155 34 -17 67 -25 101 -25 75 0 113 27 222 157 101 120
329 458 356 526 34 87 41 99 78 123 44 29 62 29 85 4z m-2411 -242 c9 -56 82
-131 146 -148 80 -22 405 3 665 51 61 12 147 23 192 26 79 5 84 4 120 -23 60
-45 213 -193 213 -205 0 -4 -22 -15 -48 -23 -56 -19 -94 -54 -116 -108 -21
-49 -21 -245 -1 -477 l16 -173 -32 -57 c-18 -31 -54 -88 -80 -128 -27 -40 -49
-76 -49 -82 0 -5 -3 -11 -8 -13 -4 -1 -38 -45 -76 -95 -37 -51 -70 -93 -73
-93 -2 0 -11 16 -19 35 -22 53 -81 113 -122 125 -49 13 -254 -4 -407 -34 -66
-13 -145 -27 -175 -31 -30 -4 -99 -18 -152 -31 -53 -13 -119 -24 -147 -24 -49
0 -126 23 -186 57 -38 21 -279 203 -283 214 -2 4 14 15 34 24 113 47 131 119
141 550 6 317 5 314 159 469 38 39 92 89 118 111 93 78 151 124 157 125 4 0 9
-19 13 -42z m-936 -1009 c17 -6 52 -36 78 -67 63 -76 185 -187 254 -232 13 -8
37 -26 54 -40 82 -68 187 -141 241 -169 54 -27 71 -31 170 -34 101 -3 113 -2
157 21 30 16 75 27 125 33 43 4 125 17 183 29 127 25 370 44 402 31 30 -12 54
-38 73 -84 27 -66 21 -90 -42 -160 -77 -84 -113 -157 -113 -225 0 -46 4 -57
35 -91 34 -38 176 -141 194 -141 5 0 19 -8 32 -19 43 -33 221 -134 389 -219
170 -86 240 -138 240 -178 0 -28 -23 -52 -56 -59 -13 -3 -35 -7 -48 -10 -42
-9 -474 106 -581 154 -40 18 -205 53 -222 47 -14 -6 -15 -9 -2 -21 18 -17 414
-149 499 -165 36 -7 86 -24 112 -37 26 -13 69 -28 95 -34 27 -5 79 -27 118
-47 77 -41 112 -85 101 -127 -16 -64 -229 -114 -357 -85 -30 6 -97 29 -149 50
-110 43 -359 118 -410 122 -24 2 -35 -1 -35 -11 0 -14 131 -65 265 -102 41
-12 93 -30 115 -40 22 -10 82 -32 132 -48 143 -46 255 -103 297 -152 20 -24
36 -50 36 -59 0 -28 -40 -71 -84 -91 -69 -31 -125 -24 -291 35 -38 14 -78 25
-88 26 -9 0 -25 4 -35 10 -9 5 -71 23 -137 40 -66 16 -153 41 -193 55 -41 14
-78 23 -83 20 -32 -20 79 -84 186 -108 218 -49 304 -72 352 -93 29 -13 61 -24
71 -24 20 0 65 -27 105 -63 34 -31 35 -69 2 -105 -24 -25 -30 -27 -108 -26
-105 2 -295 39 -652 126 -133 33 -269 82 -300 109 -21 18 -69 45 -200 112 -96
49 -88 43 -189 139 -84 80 -109 120 -176 278 -91 215 -159 309 -313 431 -117
94 -379 269 -482 323 -38 20 -96 53 -127 74 -188 124 -291 198 -305 219 -20
30 -12 49 56 127 29 32 60 70 69 85 72 114 409 446 482 474 22 8 24 8 58 -4z"/>
<path d="M2460 2865 l0 -245 130 0 130 0 0 40 0 40 -85 0 -85 0 0 205 0 205
-45 0 -45 0 0 -245z"/>
<path d="M2960 2865 l0 -245 45 0 45 0 0 245 0 245 -45 0 -45 0 0 -245z"/>
<path d="M3339 3108 c0 -2 -8 -112 -17 -245 l-18 -243 38 0 c36 0 37 1 42 43
3 23 9 110 14 192 5 105 10 141 16 120 4 -16 26 -101 49 -188 l42 -158 35 3
35 3 50 170 c28 94 53 177 56 185 3 8 9 -72 14 -177 l7 -193 43 0 43 0 -4 43
c-5 55 -24 390 -24 423 0 24 -2 25 -57 22 l-57 -3 -38 -135 c-20 -74 -43 -155
-49 -180 l-12 -45 -8 30 c-5 17 -27 99 -50 183 l-41 152 -54 0 c-30 0 -54 -1
-55 -2z"/>
<path d="M2802 2714 c-28 -19 -28 -58 -1 -85 20 -20 51 -19 73 2 17 15 10 71
-9 85 -24 18 -36 18 -63 -2z"/>
<path d="M3162 2714 c-28 -19 -28 -58 -1 -85 20 -20 51 -19 73 2 17 15 10 71
-9 85 -24 18 -36 18 -63 -2z"/>
<path d="M6071 3394 c0 -11 3 -14 6 -6 3 7 2 16 -1 19 -3 4 -6 -2 -5 -13z"/>
</g>
</svg>
